<?xml version="1.0" encoding="UTF-8"?>
<svg version="1.1" xmlns="http://www.w3.org/2000/svg" width="864" height="864">
<path d="M0 0 C1.24843689 -0.00067474 2.49687378 -0.00134949 3.78314209 -0.00204468 C22.71413938 0.01419638 41.24068287 0.51909529 60 3.25 C61.83908936 3.50740967 61.83908936 3.50740967 63.71533203 3.77001953 C87.56753255 7.18183244 111.18762606 12.43122342 134 20.25 C134.96212402 20.57274902 135.92424805 20.89549805 136.91552734 21.22802734 C180.92076713 36.05939851 223.00045193 57.03691775 260 85.25 C260.62261719 85.72244141 261.24523437 86.19488281 261.88671875 86.68164062 C270.87461159 93.53275297 279.52340874 100.77763902 288 108.25 C288.733396 108.89437012 289.46679199 109.53874023 290.22241211 110.20263672 C296.52217056 115.79864857 302.55817291 121.62192796 308.51391602 127.57861328 C310.05923066 129.1217353 311.61240446 130.65664306 313.16601562 132.19140625 C319.56358382 138.55346875 325.37467044 145.18429209 331 152.25 C331.92321468 153.33996668 332.85283304 154.42459424 333.79296875 155.5 C372.60382165 200.07233351 400.71986857 255.6637882 417 312.25 C417.24169922 313.08789062 417.48339844 313.92578125 417.73242188 314.7890625 C427.10242092 347.79092927 433.06102488 382.36421585 433.203125 416.71484375 C433.21013931 417.85857956 433.21715363 419.00231537 433.22438049 420.18070984 C433.24177723 423.84968049 433.24823257 427.51848962 433.25 431.1875 C433.25101212 433.070065 433.25101212 433.070065 433.25204468 434.99066162 C433.2361317 453.61301107 432.77675269 471.80903217 430 490.25 C429.82307617 491.47638184 429.64615234 492.70276367 429.46386719 493.96630859 C420.10140417 557.84611889 397.09846791 621.12219406 360 674.25 C359.10143747 675.56111224 358.20301025 676.87231721 357.3046875 678.18359375 C350.77073971 687.6483847 343.80936072 696.64974361 336.45605469 705.48974609 C334.42138879 707.94949478 332.43426675 710.44694797 330.4375 712.9375 C322.30017296 722.82478984 313.39610079 731.9572308 304.38314819 741.04208374 C302.97970612 742.45743571 301.58024342 743.8767301 300.1809082 745.29614258 C294.84284293 750.64092542 289.34615746 755.58731012 283.43066406 760.28686523 C281.14113485 762.13601192 278.96956997 764.06168762 276.8125 766.0625 C217.863414 818.85584074 136.41201802 850.50502478 59 861.25 C58.20899902 861.36182617 57.41799805 861.47365234 56.60302734 861.58886719 C52.07669354 862.22109799 47.55002109 862.81550561 43 863.25 C41.71198486 863.38136353 41.71198486 863.38136353 40.39794922 863.51538086 C28.69549986 864.53658946 16.96458568 864.43607497 5.2265625 864.43530273 C1.53633904 864.43747857 -2.15357958 864.45565639 -5.84375 864.47460938 C-20.34331048 864.50944494 -34.59679824 863.93793947 -49 862.25 C-50.22219238 862.10925049 -51.44438477 861.96850098 -52.70361328 861.82348633 C-117.17117372 853.78847057 -180.90209494 831.46003192 -235 795.25 C-235.77746582 794.73614746 -236.55493164 794.22229492 -237.35595703 793.69287109 C-254.4839687 782.35441336 -270.61934209 769.85893743 -286 756.25 C-286.91007813 755.45207031 -287.82015625 754.65414062 -288.7578125 753.83203125 C-295.27511583 747.99245319 -301.51070906 741.8655833 -307.72167969 735.70355225 C-309.14381295 734.29332142 -310.56989288 732.88707405 -311.99609375 731.48095703 C-318.10379269 725.38089271 -323.61312236 718.98815991 -329 712.25 C-329.92345469 711.16023665 -330.8530619 710.07560579 -331.79296875 709 C-347.52818752 690.92888415 -360.99648343 670.95761027 -373 650.25 C-373.38091797 649.59789551 -373.76183594 648.94579102 -374.15429688 648.27392578 C-408.90776712 588.46730913 -430.91549679 517.31507581 -431.203125 447.78515625 C-431.21013931 446.64142044 -431.21715363 445.49768463 -431.22438049 444.31929016 C-431.24177723 440.65031951 -431.24823257 436.98151038 -431.25 433.3125 C-431.25067474 432.05745667 -431.25134949 430.80241333 -431.25204468 429.50933838 C-431.23612977 410.88473517 -430.7675287 392.69389125 -428 374.25 C-427.82839355 373.0448877 -427.65678711 371.83977539 -427.47998047 370.59814453 C-419.20667208 313.3356124 -399.79330666 256.41018051 -369 207.25 C-368.35514648 206.21770264 -368.35514648 206.21770264 -367.69726562 205.16455078 C-357.561839 189.03294658 -346.64008192 173.65765611 -334.45605469 159.01025391 C-332.42138879 156.55050522 -330.43426675 154.05305203 -328.4375 151.5625 C-320.17032971 141.5206241 -311.11071465 132.25515726 -301.95489502 123.02966309 C-300.95998785 122.02671214 -299.96656535 121.02228577 -298.97479248 120.01623535 C-292.33277545 113.28880767 -285.40208725 107.13342079 -278 101.25 C-276.94969737 100.3741303 -275.90305325 99.49381414 -274.86328125 98.60546875 C-213.27245033 46.25797846 -135.52630636 14.19021254 -55.875 3 C-54.71436035 2.83669189 -53.5537207 2.67338379 -52.35791016 2.50512695 C-34.91762686 0.17387701 -17.56782858 0.00853411 0 0 Z " fill="#6366F1" transform="translate(431,-0.25)"/>
<path d="M0 0 C17.49 0 34.98 0 53 0 C53 71.61 53 143.22 53 217 C122.3 217 191.6 217 263 217 C263 233.83 263 250.66 263 268 C261.44478435 269.55521565 259.96812363 269.1253974 257.80361176 269.12584114 C256.43780086 269.12975276 256.43780086 269.12975276 255.04439783 269.13374341 C254.03245529 269.13151268 253.02051274 269.12928196 251.97790527 269.12698364 C250.91194925 269.12854363 249.84599322 269.13010362 248.7477355 269.13171089 C245.14626307 269.13572592 241.54483218 269.1325293 237.94335938 269.12939453 C235.37343826 269.13074835 232.80351735 269.13252817 230.2335968 269.13470459 C223.96018207 269.1391629 217.68677926 269.13818555 211.41336405 269.13529195 C206.3170942 269.13303815 201.2208277 269.13272529 196.1245575 269.13381577 C195.40061242 269.133969 194.67666735 269.13412223 193.93078455 269.13428011 C192.46033482 269.13459982 190.98988508 269.13492403 189.51943535 269.1352527 C175.71477627 269.13810767 161.91012382 269.1348202 148.10546583 269.12945233 C136.24755333 269.12498428 124.38965061 269.12576021 112.53173828 269.13037109 C98.7781637 269.13571656 85.02459493 269.13783298 71.27101946 269.13475883 C69.80582714 269.13444026 68.34063482 269.13412589 66.8754425 269.13381577 C66.15444542 269.13366149 65.43344835 269.13350721 64.69060287 269.13334826 C59.59750072 269.13248302 54.50440224 269.13394613 49.41130066 269.13629532 C42.56272388 269.13938462 35.71416598 269.137201 28.86559105 269.13140106 C26.34397093 269.13007269 23.82234926 269.13046888 21.30072975 269.13266373 C17.87449657 269.13537221 14.44832398 269.13199781 11.02209473 269.12698364 C9.50418091 269.13032973 9.50418091 269.13032973 7.95560217 269.13374341 C6.58979128 269.12983178 6.58979128 269.12983178 5.19638824 269.12584114 C4.00848686 269.12559761 4.00848686 269.12559761 2.79658747 269.12534916 C1 269 1 269 0 268 C-0.09662242 266.56649935 -0.12371827 265.12824998 -0.12304783 263.69149685 C-0.12503888 262.75595579 -0.12702993 261.82041472 -0.12908131 260.85652393 C-0.12471205 259.29673198 -0.12471205 259.29673198 -0.12025452 257.70542908 C-0.12110894 256.61018262 -0.12196337 255.51493616 -0.12284368 254.38650042 C-0.12450171 250.68595477 -0.11897186 246.98545363 -0.11352539 243.28491211 C-0.11324356 240.64440305 -0.11335705 238.00389678 -0.1139679 235.36338806 C-0.11449332 229.66284149 -0.1113446 223.96230632 -0.10573006 218.26176262 C-0.09761754 210.01964187 -0.09500009 201.77752667 -0.09374207 193.53540237 C-0.09155115 180.16446759 -0.08489001 166.79353889 -0.07543945 153.42260742 C-0.06626635 140.43074575 -0.05918502 127.43888574 -0.05493164 114.44702148 C-0.05453756 113.24664335 -0.05453756 113.24664335 -0.05413551 112.02201515 C-0.05283051 108.0075547 -0.05156679 103.99309423 -0.05032361 99.97863376 C-0.03994977 66.65241712 -0.02151082 33.32621178 0 0 Z " fill="#FCFDFD" transform="translate(222,354)"/>
<path d="M0 0 C4.62398011 0.48804083 6.72290307 2.14996565 10.0625 5.3125 C10.79895752 6.00448486 10.79895752 6.00448486 11.55029297 6.71044922 C17.94369374 12.78274646 24.12792123 19.08104435 30.32055664 25.35668945 C31.15578857 26.20062256 31.99102051 27.04455566 32.8515625 27.9140625 C33.60260254 28.6767041 34.35364258 29.4393457 35.12744141 30.22509766 C36.8858678 32.0640688 36.8858678 32.0640688 39 33 C39 37 39 37 36.9609375 39.26171875 C36.50299805 39.68372559 36.04505859 40.10573242 35.57324219 40.54052734 C33.7916414 42.19329108 32.13843015 43.93398545 30.4765625 45.70703125 C29.8475 46.37669922 29.2184375 47.04636719 28.5703125 47.73632812 C27.92835938 48.42146484 27.28640625 49.10660156 26.625 49.8125 C25.99078125 50.48603516 25.3565625 51.15957031 24.703125 51.85351562 C20.95394799 55.85136254 17.30486626 59.91824895 13.71044922 64.05541992 C10.9583602 67.18422223 8.10553637 70.21584037 5.25 73.25 C1.0145681 77.76771934 -3.20247825 82.29909246 -7.375 86.875 C-12.60312519 92.59956438 -17.91825539 98.23978355 -23.25537109 103.86279297 C-26.38337335 107.16958302 -29.45459942 110.50097815 -32.421875 113.953125 C-37.10356544 119.34856836 -42.23760479 124.2839537 -47.328125 129.2890625 C-51.56806732 133.4857401 -55.61945353 137.76068326 -59.5078125 142.28515625 C-61.80252477 144.92227323 -64.29992855 147.32406895 -66.8125 149.75 C-69.36630368 152.3767695 -71.74624841 155.12945827 -74.1484375 157.89453125 C-77.02540897 161.16602412 -80.00961154 164.3324272 -83 167.5 C-84.31510547 168.89843627 -85.6302096 170.29687381 -86.9453125 171.6953125 C-88.29681481 173.13026503 -89.64837748 174.5651607 -91 176 C-101.84973779 187.52197811 -101.84973779 187.52197811 -112.48828125 199.23828125 C-116.64406922 203.80770908 -120.9006876 208.28292831 -125.15405273 212.76147461 C-128.96837923 216.79040109 -132.67932954 220.88536919 -136.31591797 225.07519531 C-138.98515016 228.1259675 -141.73428893 231.09926705 -144.5 234.0625 C-145.09240479 234.69808838 -145.68480957 235.33367676 -146.29516602 235.98852539 C-151.36480571 241.39264583 -156.58529378 246.63417835 -161.86279297 251.8347168 C-165.66490397 255.59807183 -169.24843234 259.42592017 -172.5078125 263.6796875 C-174.7100888 265.62829847 -176.0514105 265.91128551 -179 266 C-181.24403493 264.28398469 -182.98271816 262.69398044 -184.89453125 260.65625 C-185.44558029 260.0943396 -185.99662933 259.5324292 -186.56437683 258.95349121 C-188.32840226 257.14926128 -190.07077423 255.32574267 -191.8125 253.5 C-194.10559366 251.13045923 -196.40644765 248.76851601 -198.70703125 246.40625 C-199.26033112 245.8349939 -199.81363098 245.26373779 -200.38369751 244.6751709 C-203.86983873 241.09309285 -207.45829782 237.72066329 -211.27612305 234.49023438 C-214.17472713 231.98448741 -216.82392988 229.23883245 -219.5 226.5 C-222.8877966 223.06962004 -226.25222089 219.67715525 -229.9375 216.5625 C-234.50879391 212.69000261 -238.64118424 208.38369778 -242.8515625 204.12890625 C-246.52661755 200.43003875 -250.26958957 196.89473398 -254.25390625 193.52734375 C-256.82405956 191.27917833 -259.18572941 188.83991786 -261.5546875 186.3828125 C-262.97109777 184.89145515 -262.97109777 184.89145515 -265 184 C-264.54690625 179.27607816 -262.78780087 177.37862347 -259.375 174.1875 C-255.64767662 170.60821216 -252.14086365 166.98859672 -248.78125 163.06640625 C-246.70335956 160.65587107 -244.57294458 158.29716626 -242.4375 155.9375 C-238.89303555 152.01067037 -235.42082097 148.03481448 -232 144 C-228.15779072 144.51989849 -226.19878602 145.30403119 -223.48242188 148.06347656 C-222.83825317 148.70794739 -222.19408447 149.35241821 -221.53039551 150.01641846 C-220.85005249 150.71740662 -220.16970947 151.41839478 -219.46875 152.140625 C-218.75521362 152.85982117 -218.04167725 153.57901733 -217.30651855 154.32000732 C-215.02811149 156.62077858 -212.76397819 158.93503781 -210.5 161.25 C-208.97618732 162.79388415 -207.45145747 164.33686363 -205.92578125 165.87890625 C-203.11731025 168.72001246 -200.31424814 171.56622298 -197.51757812 174.41894531 C-194.05743873 177.94685484 -190.57669808 181.45173937 -187.05078125 184.9140625 C-186.47714844 185.47867188 -185.90351563 186.04328125 -185.3125 186.625 C-184.73113281 187.19476563 -184.14976562 187.76453125 -183.55078125 188.3515625 C-182 190 -182 190 -180 193 C-176.19054637 192.87135053 -174.36328543 191.6414761 -171.80078125 189.0078125 C-170.62669472 187.72380721 -169.46448334 186.42887237 -168.3125 185.125 C-167.39102173 184.10877563 -167.39102173 184.10877563 -166.45092773 183.07202148 C-165.20805434 181.69953022 -163.96979724 180.32284365 -162.73632812 178.94189453 C-161.20565304 177.2300006 -159.66276283 175.53110299 -158.109375 173.83984375 C-154.51486971 169.92006881 -150.96441666 165.97262103 -147.5 161.9375 C-144.79513631 158.81797561 -141.93490509 155.90396483 -139 153 C-135.53805934 149.57433716 -132.26662999 146.0842976 -129.1015625 142.38671875 C-126.17879387 139.06736627 -123.15035513 135.85074407 -120.125 132.625 C-115.45423473 127.64191321 -110.83162745 122.6249561 -106.28125 117.53125 C-102.99250865 113.88209864 -99.64719615 110.28598093 -96.30688477 106.68408203 C-93.59045126 103.74756207 -90.91872625 100.78555818 -88.3125 97.75 C-85.11765473 94.04988723 -81.66318542 90.64943154 -78.1875 87.21484375 C-75.59960247 84.5945975 -73.18682868 81.86041032 -70.78515625 79.0703125 C-65.66485856 73.13211168 -60.35606329 67.36792218 -54.9831543 61.65869141 C-49.19248224 55.50349438 -43.58244738 49.24711542 -38.12890625 42.79150391 C-34.85052166 38.93164907 -31.42368326 35.31116975 -27.7890625 31.78125 C-25.33597895 29.33887861 -23.09199959 26.74075292 -20.8359375 24.1171875 C-18.82183678 21.79454369 -16.75728097 19.52312787 -14.6875 17.25 C-9.62001082 11.64081371 -4.80268312 5.83541039 0 0 Z " fill="#FBFBFD" transform="translate(571,268)"/>
<path d="M0 0 C17.49 0 34.98 0 53 0 C53 71.28 53 142.56 53 216 C52.67 216 52.34 216 52 216 C52 145.05 52 74.1 52 1 C35.5 1 19 1 2 1 C2.33 88.78 2.66 176.56 3 267 C88.47 267.33 173.94 267.66 262 268 C262 268.33 262 268.66 262 269 C228.76716565 269.02286546 195.53433325 269.04049776 162.30149278 269.05106533 C158.3822289 269.05231611 154.46296503 269.05361042 150.54370117 269.05493164 C149.76341303 269.05519395 148.98312488 269.05545626 148.17919164 269.05572652 C135.52810579 269.06008339 122.87702447 269.06797104 110.22594131 269.0771528 C97.25452442 269.08648886 84.28310991 269.09205551 71.31168979 269.09408849 C63.30112309 269.09546382 55.29056917 269.09981493 47.2800064 269.10791647 C41.14796328 269.113804 35.01592999 269.11445908 28.88388443 269.11310768 C26.36065148 269.11338422 23.83741808 269.11539203 21.314188 269.11920547 C17.88571501 269.1241356 14.45729798 269.12300082 11.02882385 269.12025452 C10.01619919 269.12316736 9.00357453 269.1260802 7.96026427 269.12908131 C7.04910697 269.12709026 6.13794968 269.12509921 5.19918156 269.12304783 C4.40670523 269.12342755 3.6142289 269.12380727 2.79773813 269.1241985 C1 269 1 269 0 268 C-0.09662242 266.56649935 -0.12371827 265.12824998 -0.12304783 263.69149685 C-0.12503888 262.75595579 -0.12702993 261.82041472 -0.12908131 260.85652393 C-0.12471205 259.29673198 -0.12471205 259.29673198 -0.12025452 257.70542908 C-0.12110894 256.61018262 -0.12196337 255.51493616 -0.12284368 254.38650042 C-0.12450171 250.68595477 -0.11897186 246.98545363 -0.11352539 243.28491211 C-0.11324356 240.64440305 -0.11335705 238.00389678 -0.1139679 235.36338806 C-0.11449332 229.66284149 -0.1113446 223.96230632 -0.10573006 218.26176262 C-0.09761754 210.01964187 -0.09500009 201.77752667 -0.09374207 193.53540237 C-0.09155115 180.16446759 -0.08489001 166.79353889 -0.07543945 153.42260742 C-0.06626635 140.43074575 -0.05918502 127.43888574 -0.05493164 114.44702148 C-0.05453756 113.24664335 -0.05453756 113.24664335 -0.05413551 112.02201515 C-0.05283051 108.0075547 -0.05156679 103.99309423 -0.05032361 99.97863376 C-0.03994977 66.65241712 -0.02151082 33.32621178 0 0 Z " fill="#D3D4FA" transform="translate(222,354)"/>
<path d="M0 0 C0 4.09214774 -1.60222874 5.19193703 -4.3125 8.1875 C-5.11300781 9.08855469 -5.91351562 9.98960937 -6.73828125 10.91796875 C-9 13 -9 13 -12 13 C-8.04 8.71 -4.08 4.42 0 0 Z " fill="#8789F4" transform="translate(557,361)"/>
<path d="M0 0 C0.66 0 1.32 0 2 0 C0.34908222 4.29238623 -2.73754566 6.8793915 -6 10 C-6.66 9.67 -7.32 9.34 -8 9 C-6.71520959 7.49410612 -5.42195918 5.99542625 -4.125 4.5 C-3.04605469 3.24703125 -3.04605469 3.24703125 -1.9453125 1.96875 C-1.30335938 1.3190625 -0.66140625 0.669375 0 0 Z " fill="#E3E3FB" transform="translate(339,412)"/>
<path d="M0 0 C1.32 0.33 2.64 0.66 4 1 C0.04 4.465 0.04 4.465 -4 8 C-4.66 7.67 -5.32 7.34 -6 7 C-4.02 4.69 -2.04 2.38 0 0 Z " fill="#D9DAFB" transform="translate(571,268)"/>
</svg>
